# xmcd
#
# Track frame offsets:
#	150
#	18222
#	32611
#	46884
#	64709
#	84015
#	100217
#	119394
#	134864
#	151021
#
# Disc length: 2193 seconds
#
# Revision: 1
# Processed by: cddbd v1.5.2PL0 Copyright (c) Steve Scherf et al.
# Submitted via: audiograbber 1.83.01
#
DISCID=72088f0a
DTITLE=The Rolling Stones Tribute - Pickin' On The Rolling Stones: A Bluegrass 
DTITLE=Tribute Vol 2
DYEAR=2003
DGENRE=Acoustic
TTITLE0=Get Off Of My Cloud
TTITLE1=When The Whip Come Down
TTITLE2=Ruby Tuesday
TTITLE3=She's So Cold
TTITLE4=Sympathy For The Devil
TTITLE5=Street Fightin' Man
TTITLE6=Midnight Rambler
TTITLE7=I Know It's Only Rock and Roll
TTITLE8=Monkey
TTITLE9=A Stones Throw
EXTD=
EXTT0=
EXTT1=
EXTT2=
EXTT3=
EXTT4=
EXTT5=
EXTT6=
EXTT7=
EXTT8=
EXTT9=
PLAYORDER=
